<svg width="41" height="41" viewBox="0 0 41 41" fill="none" xmlns="http://www.w3.org/2000/svg">
<path fill-rule="evenodd" clip-rule="evenodd" d="M37.5202 0.198435C37.9561 0.00821216 38.4336 -0.0471857 38.899 0.0406307C39.3641 0.128386 39.7925 0.354373 40.1399 0.686603C40.4869 1.01838 40.7399 1.44316 40.8784 1.91153C41.0168 2.37969 41.0373 2.87919 40.9385 3.35812L33.6158 38.8483C33.5216 39.3044 33.3214 39.7312 33.0292 40.0851C32.7368 40.4394 32.3613 40.7093 31.9362 40.8615C31.5107 41.0139 31.0549 41.0413 30.6154 40.9399C30.1763 40.8385 29.7744 40.6135 29.447 40.2936L12.1401 23.378L2.02691 21.1315C1.47793 21.0096 0.989368 20.6956 0.629299 20.2496C0.26993 19.8044 0.0557461 19.2499 0.00949969 18.6709C-0.0367382 18.0919 0.0863846 17.5081 0.366392 17.0054C0.646797 16.5019 1.073 16.1015 1.58994 15.876L1.95486 16.7959L1.58994 15.876L37.5202 0.198435ZM38.5529 2.05841C38.4595 2.04078 38.3627 2.05132 38.2711 2.09132L2.34084 17.7689C2.2315 17.8166 2.12793 17.9073 2.05434 18.0395C1.98036 18.1723 1.9443 18.3343 1.95751 18.4997C1.97072 18.6651 2.03142 18.8136 2.12124 18.9249C2.21036 19.0353 2.32113 19.1012 2.43197 19.1259L12.8105 21.4313C12.9842 21.4699 13.1445 21.5573 13.2744 21.6842L30.7798 38.7938C30.8576 38.8698 30.9464 38.917 31.0355 38.9376C31.1244 38.9581 31.2164 38.9529 31.3045 38.9214C31.3929 38.8897 31.4791 38.8306 31.5514 38.7432C31.6239 38.6553 31.6787 38.5428 31.7051 38.4147L39.0279 2.92451C39.0557 2.78974 39.0497 2.6488 39.0113 2.5188C38.9729 2.38899 38.9054 2.28055 38.8228 2.20152C38.7406 2.12293 38.6466 2.0761 38.5529 2.05841Z" fill="#B3BED0"/>
<path fill-rule="evenodd" clip-rule="evenodd" d="M39.8828 0.555209C40.2108 1.0049 40.129 1.64826 39.7002 1.9922L13.2014 23.2482C12.7726 23.5921 12.1592 23.5064 11.8312 23.0567C11.5033 22.607 11.585 21.9637 12.0138 21.6197L38.5126 0.363741C38.9414 0.0198002 39.5549 0.105523 39.8828 0.555209Z" fill="#B3BED0"/>
<path fill-rule="evenodd" clip-rule="evenodd" d="M12.6075 21.4092C13.1474 21.4092 13.585 21.8681 13.585 22.4343V36.5133C13.585 36.6653 13.6258 36.8095 13.6967 36.9273C13.7672 37.0446 13.8617 37.1267 13.9616 37.1727C14.0608 37.2183 14.1663 37.2291 14.2674 37.2068C14.369 37.1843 14.4705 37.1272 14.5557 37.0326L20.6396 30.2755C21.0102 29.8638 21.6288 29.8452 22.0213 30.2339C22.4138 30.6226 22.4315 31.2714 22.0609 31.683L15.977 38.4402L15.2937 37.7636L15.977 38.4402C15.6265 38.8295 15.1729 39.1019 14.6703 39.2129C14.1672 39.3241 13.6464 39.2664 13.1764 39.0501C12.7071 38.8343 12.3151 38.473 12.0434 38.0213C11.772 37.5701 11.6301 37.0455 11.6301 36.5133V22.4343C11.6301 21.8681 12.0677 21.4092 12.6075 21.4092Z" fill="#B3BED0"/>
</svg>
